<?xml version="1.0" encoding="UTF-8"?>
<svg xmlns="http://www.w3.org/2000/svg" xmlns:xlink="http://www.w3.org/1999/xlink" width="3000" height="3000" viewBox="0 0 3000 3000">
<defs>
<clipPath id="clip-0">

</clipPath>
<clipPath id="clip-1">
<path clip-rule="nonzero" d="M 1050 1476.941406 L 1049.628906 1477.339844 C 1014.429688 1518.121094 987.273438 1571.820312 968.148438 1638.449219 C 950.601562 1700.871094 947.558594 1771.050781 959.015625 1848.96875 C 987.53125 1991.28125 1053.859375 2102.496094 1158.011719 2182.625 C 1265.910156 2262.496094 1377.050781 2302.707031 1491.429688 2303.261719 C 1554.429688 2297.09375 1598.03125 2289.84375 1622.21875 2281.507812 C 1657.109375 2271.382812 1687.671875 2260.027344 1713.910156 2247.433594 C 1773.570312 2219.820312 1829.480469 2178.640625 1881.648438 2123.90625 C 1962.039062 2039.28125 2009.019531 1932.988281 2022.578125 1805.019531 C 2026.289062 1740.648438 2019.640625 1681.71875 2002.601562 1628.21875 C 1982.75 1571.5 1957.609375 1522.570312 1927.179688 1481.429688 C 1983.511719 1642.25 1970.199219 1793.210938 1887.25 1934.289062 C 1796.621094 2070.167969 1673.089844 2141.089844 1516.671875 2147.0625 C 1468.070312 2148.074219 1420.019531 2143.769531 1372.539062 2134.15625 C 1352.089844 2130.851562 1317.628906 2118.140625 1269.179688 2096.027344 C 1200.859375 2059.824219 1145.390625 2009.800781 1102.769531 1945.960938 C 1058.761719 1879.058594 1032.910156 1805.121094 1025.210938 1724.179688 C 1022.488281 1699.359375 1022.328125 1669.03125 1024.75 1633.199219 C 1028.261719 1586.121094 1038.519531 1536.539062 1055.519531 1484.460938 C 1055.988281 1482.929688 1054.148438 1480.429688 1050 1476.941406 "/>
</clipPath>
<clipPath id="clip-2">
<path clip-rule="nonzero" d="M 1050 1476.941406 L 1049.628906 1477.339844 C 1014.429688 1518.121094 987.273438 1571.820312 968.148438 1638.449219 C 950.601562 1700.871094 947.558594 1771.050781 959.015625 1848.96875 C 987.53125 1991.28125 1053.859375 2102.496094 1158.011719 2182.625 C 1265.910156 2262.496094 1377.050781 2302.707031 1491.429688 2303.261719 C 1554.429688 2297.09375 1598.03125 2289.84375 1622.21875 2281.507812 C 1657.109375 2271.382812 1687.671875 2260.027344 1713.910156 2247.433594 C 1773.570312 2219.820312 1829.480469 2178.640625 1881.648438 2123.90625 C 1962.039062 2039.28125 2009.019531 1932.988281 2022.578125 1805.019531 C 2026.289062 1740.648438 2019.640625 1681.71875 2002.601562 1628.21875 C 1982.75 1571.5 1957.609375 1522.570312 1927.179688 1481.429688 C 1983.511719 1642.25 1970.199219 1793.210938 1887.25 1934.289062 C 1796.621094 2070.167969 1673.089844 2141.089844 1516.671875 2147.0625 C 1468.070312 2148.074219 1420.019531 2143.769531 1372.539062 2134.15625 C 1352.089844 2130.851562 1317.628906 2118.140625 1269.179688 2096.027344 C 1200.859375 2059.824219 1145.390625 2009.800781 1102.769531 1945.960938 C 1058.761719 1879.058594 1032.910156 1805.121094 1025.210938 1724.179688 C 1022.488281 1699.359375 1022.328125 1669.03125 1024.75 1633.199219 C 1028.261719 1586.121094 1038.519531 1536.539062 1055.519531 1484.460938 C 1055.988281 1482.929688 1054.148438 1480.429688 1050 1476.941406 "/>
</clipPath>
<linearGradient id="linear-pattern-0" gradientUnits="userSpaceOnUse" x1="590.207691" y1="2187.223487" x2="584.74883" y2="1078.406702" gradientTransform="matrix(0.75, 0, 0, 0.75, 1095, 665.25)">
<stop offset="0" stop-color="rgb(100%, 49.411011%, 0%)" stop-opacity="1"/>
<stop offset="0.00638593" stop-color="rgb(100%, 49.411011%, 0%)" stop-opacity="1"/>
<stop offset="0.125" stop-color="rgb(100%, 49.411011%, 0%)" stop-opacity="1"/>
<stop offset="0.1875" stop-color="rgb(100%, 49.272156%, 0%)" stop-opacity="1"/>
<stop offset="0.195313" stop-color="rgb(100%, 49.032593%, 0%)" stop-opacity="1"/>
<stop offset="0.203125" stop-color="rgb(100%, 48.828125%, 0%)" stop-opacity="1"/>
<stop offset="0.210938" stop-color="rgb(100%, 48.625183%, 0%)" stop-opacity="1"/>
<stop offset="0.21875" stop-color="rgb(100%, 48.420715%, 0%)" stop-opacity="1"/>
<stop offset="0.226563" stop-color="rgb(100%, 48.217773%, 0%)" stop-opacity="1"/>
<stop offset="0.234375" stop-color="rgb(100%, 48.013306%, 0%)" stop-opacity="1"/>
<stop offset="0.242188" stop-color="rgb(100%, 47.810364%, 0%)" stop-opacity="1"/>
<stop offset="0.25" stop-color="rgb(100%, 47.605896%, 0%)" stop-opacity="1"/>
<stop offset="0.257813" stop-color="rgb(100%, 47.402954%, 0%)" stop-opacity="1"/>
<stop offset="0.265625" stop-color="rgb(100%, 47.198486%, 0%)" stop-opacity="1"/>
<stop offset="0.273438" stop-color="rgb(100%, 46.995544%, 0%)" stop-opacity="1"/>
<stop offset="0.28125" stop-color="rgb(100%, 46.791077%, 0%)" stop-opacity="1"/>
<stop offset="0.289062" stop-color="rgb(100%, 46.588135%, 0%)" stop-opacity="1"/>
<stop offset="0.296875" stop-color="rgb(100%, 46.383667%, 0%)" stop-opacity="1"/>
<stop offset="0.304688" stop-color="rgb(100%, 46.180725%, 0%)" stop-opacity="1"/>
<stop offset="0.3125" stop-color="rgb(100%, 45.976257%, 0%)" stop-opacity="1"/>
<stop offset="0.320312" stop-color="rgb(100%, 45.773315%, 0%)" stop-opacity="1"/>
<stop offset="0.328125" stop-color="rgb(100%, 45.568848%, 0%)" stop-opacity="1"/>
<stop offset="0.335938" stop-color="rgb(100%, 45.365906%, 0%)" stop-opacity="1"/>
<stop offset="0.34375" stop-color="rgb(100%, 45.161438%, 0%)" stop-opacity="1"/>
<stop offset="0.351563" stop-color="rgb(100%, 44.958496%, 0%)" stop-opacity="1"/>
<stop offset="0.359375" stop-color="rgb(100%, 44.754028%, 0%)" stop-opacity="1"/>
<stop offset="0.367188" stop-color="rgb(100%, 44.551086%, 0%)" stop-opacity="1"/>
<stop offset="0.375" stop-color="rgb(100%, 44.346619%, 0%)" stop-opacity="1"/>
<stop offset="0.382813" stop-color="rgb(100%, 44.143677%, 0%)" stop-opacity="1"/>
<stop offset="0.390625" stop-color="rgb(100%, 43.939209%, 0%)" stop-opacity="1"/>
<stop offset="0.398438" stop-color="rgb(100%, 43.736267%, 0%)" stop-opacity="1"/>
<stop offset="0.40625" stop-color="rgb(100%, 43.531799%, 0%)" stop-opacity="1"/>
<stop offset="0.414063" stop-color="rgb(100%, 43.328857%, 0%)" stop-opacity="1"/>
<stop offset="0.421875" stop-color="rgb(100%, 43.12439%, 0%)" stop-opacity="1"/>
<stop offset="0.429688" stop-color="rgb(100%, 42.921448%, 0%)" stop-opacity="1"/>
<stop offset="0.4375" stop-color="rgb(100%, 42.71698%, 0%)" stop-opacity="1"/>
<stop offset="0.445313" stop-color="rgb(100%, 42.514038%, 0%)" stop-opacity="1"/>
<stop offset="0.453125" stop-color="rgb(100%, 42.30957%, 0%)" stop-opacity="1"/>
<stop offset="0.460938" stop-color="rgb(100%, 42.106628%, 0%)" stop-opacity="1"/>
<stop offset="0.46875" stop-color="rgb(100%, 41.902161%, 0%)" stop-opacity="1"/>
<stop offset="0.476563" stop-color="rgb(100%, 41.699219%, 0%)" stop-opacity="1"/>
<stop offset="0.484375" stop-color="rgb(100%, 41.494751%, 0%)" stop-opacity="1"/>
<stop offset="0.492188" stop-color="rgb(100%, 41.291809%, 0%)" stop-opacity="1"/>
<stop offset="0.5" stop-color="rgb(100%, 41.087341%, 0%)" stop-opacity="1"/>
<stop offset="0.507812" stop-color="rgb(100%, 40.884399%, 0%)" stop-opacity="1"/>
<stop offset="0.515625" stop-color="rgb(100%, 40.679932%, 0%)" stop-opacity="1"/>
<stop offset="0.523438" stop-color="rgb(100%, 40.47699%, 0%)" stop-opacity="1"/>
<stop offset="0.53125" stop-color="rgb(100%, 40.272522%, 0%)" stop-opacity="1"/>
<stop offset="0.539062" stop-color="rgb(100%, 40.06958%, 0%)" stop-opacity="1"/>
<stop offset="0.546875" stop-color="rgb(100%, 39.865112%, 0%)" stop-opacity="1"/>
<stop offset="0.554688" stop-color="rgb(100%, 39.66217%, 0%)" stop-opacity="1"/>
<stop offset="0.5625" stop-color="rgb(100%, 39.457703%, 0%)" stop-opacity="1"/>
<stop offset="0.570312" stop-color="rgb(100%, 39.254761%, 0%)" stop-opacity="1"/>
<stop offset="0.578125" stop-color="rgb(100%, 39.050293%, 0%)" stop-opacity="1"/>
<stop offset="0.585937" stop-color="rgb(100%, 38.847351%, 0%)" stop-opacity="1"/>
<stop offset="0.59375" stop-color="rgb(100%, 38.642883%, 0%)" stop-opacity="1"/>
<stop offset="0.601562" stop-color="rgb(100%, 38.439941%, 0%)" stop-opacity="1"/>
<stop offset="0.609375" stop-color="rgb(100%, 38.235474%, 0%)" stop-opacity="1"/>
<stop offset="0.617187" stop-color="rgb(100%, 38.032532%, 0%)" stop-opacity="1"/>
<stop offset="0.625" stop-color="rgb(100%, 37.828064%, 0%)" stop-opacity="1"/>
<stop offset="0.632812" stop-color="rgb(100%, 37.625122%, 0%)" stop-opacity="1"/>
<stop offset="0.640625" stop-color="rgb(100%, 37.420654%, 0%)" stop-opacity="1"/>
<stop offset="0.648437" stop-color="rgb(100%, 37.217712%, 0%)" stop-opacity="1"/>
<stop offset="0.65625" stop-color="rgb(100%, 37.013245%, 0%)" stop-opacity="1"/>
<stop offset="0.664062" stop-color="rgb(100%, 36.810303%, 0%)" stop-opacity="1"/>
<stop offset="0.671875" stop-color="rgb(100%, 36.605835%, 0%)" stop-opacity="1"/>
<stop offset="0.679687" stop-color="rgb(100%, 36.402893%, 0%)" stop-opacity="1"/>
<stop offset="0.6875" stop-color="rgb(100%, 36.198425%, 0%)" stop-opacity="1"/>
<stop offset="0.695312" stop-color="rgb(100%, 35.995483%, 0%)" stop-opacity="1"/>
<stop offset="0.703125" stop-color="rgb(100%, 35.791016%, 0%)" stop-opacity="1"/>
<stop offset="0.710937" stop-color="rgb(100%, 35.588074%, 0%)" stop-opacity="1"/>
<stop offset="0.71875" stop-color="rgb(100%, 35.383606%, 0%)" stop-opacity="1"/>
<stop offset="0.726562" stop-color="rgb(100%, 35.180664%, 0%)" stop-opacity="1"/>
<stop offset="0.734375" stop-color="rgb(100%, 34.976196%, 0%)" stop-opacity="1"/>
<stop offset="0.742188" stop-color="rgb(100%, 34.773254%, 0%)" stop-opacity="1"/>
<stop offset="0.75" stop-color="rgb(100%, 34.568787%, 0%)" stop-opacity="1"/>
<stop offset="0.757812" stop-color="rgb(100%, 34.365845%, 0%)" stop-opacity="1"/>
<stop offset="0.765625" stop-color="rgb(100%, 34.161377%, 0%)" stop-opacity="1"/>
<stop offset="0.773438" stop-color="rgb(100%, 33.958435%, 0%)" stop-opacity="1"/>
<stop offset="0.78125" stop-color="rgb(100%, 33.753967%, 0%)" stop-opacity="1"/>
<stop offset="0.789063" stop-color="rgb(100%, 33.551025%, 0%)" stop-opacity="1"/>
<stop offset="0.796875" stop-color="rgb(100%, 33.346558%, 0%)" stop-opacity="1"/>
<stop offset="0.804688" stop-color="rgb(100%, 33.143616%, 0%)" stop-opacity="1"/>
<stop offset="0.8125" stop-color="rgb(100%, 32.939148%, 0%)" stop-opacity="1"/>
<stop offset="0.820313" stop-color="rgb(100%, 32.736206%, 0%)" stop-opacity="1"/>
<stop offset="0.828125" stop-color="rgb(100%, 32.531738%, 0%)" stop-opacity="1"/>
<stop offset="0.835938" stop-color="rgb(100%, 32.328796%, 0%)" stop-opacity="1"/>
<stop offset="0.84375" stop-color="rgb(100%, 32.124329%, 0%)" stop-opacity="1"/>
<stop offset="0.851563" stop-color="rgb(100%, 31.921387%, 0%)" stop-opacity="1"/>
<stop offset="0.859375" stop-color="rgb(100%, 31.716919%, 0%)" stop-opacity="1"/>
<stop offset="0.867188" stop-color="rgb(100%, 31.513977%, 0%)" stop-opacity="1"/>
<stop offset="0.875" stop-color="rgb(100%, 31.309509%, 0%)" stop-opacity="1"/>
<stop offset="0.882813" stop-color="rgb(100%, 31.106567%, 0%)" stop-opacity="1"/>
<stop offset="0.890625" stop-color="rgb(100%, 30.9021%, 0%)" stop-opacity="1"/>
<stop offset="0.898438" stop-color="rgb(100%, 30.699158%, 0%)" stop-opacity="1"/>
<stop offset="0.90625" stop-color="rgb(100%, 30.49469%, 0%)" stop-opacity="1"/>
<stop offset="0.914063" stop-color="rgb(100%, 30.291748%, 0%)" stop-opacity="1"/>
<stop offset="0.921875" stop-color="rgb(100%, 30.08728%, 0%)" stop-opacity="1"/>
<stop offset="0.929688" stop-color="rgb(100%, 29.884338%, 0%)" stop-opacity="1"/>
<stop offset="0.9375" stop-color="rgb(100%, 29.679871%, 0%)" stop-opacity="1"/>
<stop offset="0.945312" stop-color="rgb(100%, 29.476929%, 0%)" stop-opacity="1"/>
<stop offset="0.953125" stop-color="rgb(100%, 29.272461%, 0%)" stop-opacity="1"/>
<stop offset="0.960938" stop-color="rgb(100%, 29.069519%, 0%)" stop-opacity="1"/>
<stop offset="0.96875" stop-color="rgb(100%, 28.865051%, 0%)" stop-opacity="1"/>
<stop offset="0.976562" stop-color="rgb(100%, 28.662109%, 0%)" stop-opacity="1"/>
<stop offset="0.984375" stop-color="rgb(100%, 28.457642%, 0%)" stop-opacity="1"/>
<stop offset="0.992188" stop-color="rgb(100%, 28.2547%, 0%)" stop-opacity="1"/>
<stop offset="0.993614" stop-color="rgb(100%, 28.050232%, 0%)" stop-opacity="1"/>
<stop offset="1" stop-color="rgb(100%, 27.949524%, 0%)" stop-opacity="1"/>
</linearGradient>
<clipPath id="clip-3">
<path clip-rule="nonzero" d="M 1419 1111 L 1900 1111 L 1900 1973 L 1419 1973 Z M 1419 1111 "/>
</clipPath>
<clipPath id="clip-4">
<path clip-rule="nonzero" d="M 1664.121094 1505.769531 L 1646.390625 1509.199219 C 1567.96875 1520.640625 1510.269531 1548.878906 1473.289062 1593.941406 C 1465.101562 1604.160156 1457.640625 1615.53125 1450.910156 1628.050781 L 1441.511719 1647.429688 C 1435.660156 1660.851562 1430.878906 1674.910156 1427.140625 1689.621094 C 1419.449219 1719.371094 1417.320312 1749.691406 1420.730469 1780.578125 C 1424.71875 1812.269531 1434.890625 1840.238281 1451.230469 1864.5 C 1467.039062 1887.941406 1487.308594 1908.269531 1512.019531 1925.488281 C 1536.738281 1942.710938 1563.878906 1955.539062 1593.441406 1963.96875 C 1617.980469 1973.109375 1652.949219 1975.160156 1698.328125 1970.121094 C 1707.5 1970.980469 1731.828125 1962.011719 1771.300781 1943.191406 C 1802.230469 1925.339844 1828.640625 1901.890625 1850.53125 1872.839844 C 1884.140625 1828.539062 1900.308594 1778.121094 1899.011719 1721.589844 C 1896.839844 1684.429688 1888.640625 1647.128906 1874.441406 1609.71875 L 1863.609375 1582.078125 C 1855.898438 1563.761719 1847.710938 1545.890625 1839.039062 1528.460938 L 1778.390625 1412.421875 C 1771.761719 1399.289062 1765.921875 1386.980469 1760.859375 1375.488281 C 1750.769531 1352.71875 1743.738281 1331.820312 1739.78125 1312.78125 C 1737.789062 1303.140625 1736.550781 1293.609375 1736.050781 1284.199219 C 1734.890625 1279.710938 1735.789062 1265.269531 1738.75 1240.890625 C 1737.449219 1237.25 1747.71875 1200.738281 1769.539062 1131.371094 C 1771.179688 1124.941406 1771.929688 1119.910156 1771.789062 1116.269531 L 1770.640625 1112.171875 C 1759.691406 1108.308594 1736.160156 1129.730469 1700.050781 1176.449219 C 1674.488281 1210.191406 1656.179688 1247.351562 1645.128906 1287.921875 C 1642.03125 1301 1640 1314.121094 1639.019531 1327.261719 C 1637.53125 1333.808594 1637.929688 1353.570312 1640.21875 1386.558594 C 1645.320312 1426.21875 1653.289062 1465.960938 1664.121094 1505.769531 "/>
</clipPath>
<clipPath id="clip-5">
<path clip-rule="nonzero" d="M 1664.121094 1505.769531 L 1646.390625 1509.199219 C 1567.96875 1520.640625 1510.269531 1548.878906 1473.289062 1593.941406 C 1465.101562 1604.160156 1457.640625 1615.53125 1450.910156 1628.050781 L 1441.511719 1647.429688 C 1435.660156 1660.851562 1430.878906 1674.910156 1427.140625 1689.621094 C 1419.449219 1719.371094 1417.320312 1749.691406 1420.730469 1780.578125 C 1424.71875 1812.269531 1434.890625 1840.238281 1451.230469 1864.5 C 1467.039062 1887.941406 1487.308594 1908.269531 1512.019531 1925.488281 C 1536.738281 1942.710938 1563.878906 1955.539062 1593.441406 1963.96875 C 1617.980469 1973.109375 1652.949219 1975.160156 1698.328125 1970.121094 C 1707.5 1970.980469 1731.828125 1962.011719 1771.300781 1943.191406 C 1802.230469 1925.339844 1828.640625 1901.890625 1850.53125 1872.839844 C 1884.140625 1828.539062 1900.308594 1778.121094 1899.011719 1721.589844 C 1896.839844 1684.429688 1888.640625 1647.128906 1874.441406 1609.71875 L 1863.609375 1582.078125 C 1855.898438 1563.761719 1847.710938 1545.890625 1839.039062 1528.460938 L 1778.390625 1412.421875 C 1771.761719 1399.289062 1765.921875 1386.980469 1760.859375 1375.488281 C 1750.769531 1352.71875 1743.738281 1331.820312 1739.78125 1312.78125 C 1737.789062 1303.140625 1736.550781 1293.609375 1736.050781 1284.199219 C 1734.890625 1279.710938 1735.789062 1265.269531 1738.75 1240.890625 C 1737.449219 1237.25 1747.71875 1200.738281 1769.539062 1131.371094 C 1771.179688 1124.941406 1771.929688 1119.910156 1771.789062 1116.269531 L 1770.640625 1112.171875 C 1759.691406 1108.308594 1736.160156 1129.730469 1700.050781 1176.449219 C 1674.488281 1210.191406 1656.179688 1247.351562 1645.128906 1287.921875 C 1642.03125 1301 1640 1314.121094 1639.019531 1327.261719 C 1637.53125 1333.808594 1637.929688 1353.570312 1640.21875 1386.558594 C 1645.320312 1426.21875 1653.289062 1465.960938 1664.121094 1505.769531 "/>
</clipPath>
<linearGradient id="linear-pattern-1" gradientUnits="userSpaceOnUse" x1="588.049949" y1="1748.93782" x2="582.344312" y2="589.995473" gradientTransform="matrix(0.75, 0, 0, 0.75, 1095, 665.25)">
<stop offset="0" stop-color="rgb(100%, 43.716431%, 0%)" stop-opacity="1"/>
<stop offset="0.00273556" stop-color="rgb(100%, 43.609619%, 0%)" stop-opacity="1"/>
<stop offset="0.0078125" stop-color="rgb(100%, 43.504333%, 0%)" stop-opacity="1"/>
<stop offset="0.015625" stop-color="rgb(100%, 43.397522%, 0%)" stop-opacity="1"/>
<stop offset="0.0234375" stop-color="rgb(100%, 43.183899%, 0%)" stop-opacity="1"/>
<stop offset="0.03125" stop-color="rgb(100%, 42.971802%, 0%)" stop-opacity="1"/>
<stop offset="0.0390625" stop-color="rgb(100%, 42.758179%, 0%)" stop-opacity="1"/>
<stop offset="0.046875" stop-color="rgb(100%, 42.546082%, 0%)" stop-opacity="1"/>
<stop offset="0.0546875" stop-color="rgb(100%, 42.332458%, 0%)" stop-opacity="1"/>
<stop offset="0.0625" stop-color="rgb(100%, 42.120361%, 0%)" stop-opacity="1"/>
<stop offset="0.0703125" stop-color="rgb(100%, 41.906738%, 0%)" stop-opacity="1"/>
<stop offset="0.078125" stop-color="rgb(100%, 41.694641%, 0%)" stop-opacity="1"/>
<stop offset="0.0859375" stop-color="rgb(100%, 41.481018%, 0%)" stop-opacity="1"/>
<stop offset="0.09375" stop-color="rgb(100%, 41.267395%, 0%)" stop-opacity="1"/>
<stop offset="0.101562" stop-color="rgb(100%, 41.055298%, 0%)" stop-opacity="1"/>
<stop offset="0.109375" stop-color="rgb(100%, 40.841675%, 0%)" stop-opacity="1"/>
<stop offset="0.117187" stop-color="rgb(100%, 40.629578%, 0%)" stop-opacity="1"/>
<stop offset="0.125" stop-color="rgb(100%, 40.415955%, 0%)" stop-opacity="1"/>
<stop offset="0.132812" stop-color="rgb(100%, 40.203857%, 0%)" stop-opacity="1"/>
<stop offset="0.140625" stop-color="rgb(100%, 39.990234%, 0%)" stop-opacity="1"/>
<stop offset="0.148437" stop-color="rgb(100%, 39.778137%, 0%)" stop-opacity="1"/>
<stop offset="0.15625" stop-color="rgb(100%, 39.564514%, 0%)" stop-opacity="1"/>
<stop offset="0.164062" stop-color="rgb(100%, 39.352417%, 0%)" stop-opacity="1"/>
<stop offset="0.171875" stop-color="rgb(100%, 39.138794%, 0%)" stop-opacity="1"/>
<stop offset="0.179687" stop-color="rgb(100%, 38.926697%, 0%)" stop-opacity="1"/>
<stop offset="0.1875" stop-color="rgb(100%, 38.713074%, 0%)" stop-opacity="1"/>
<stop offset="0.195312" stop-color="rgb(100%, 38.499451%, 0%)" stop-opacity="1"/>
<stop offset="0.203125" stop-color="rgb(100%, 38.287354%, 0%)" stop-opacity="1"/>
<stop offset="0.210937" stop-color="rgb(100%, 38.07373%, 0%)" stop-opacity="1"/>
<stop offset="0.21875" stop-color="rgb(100%, 37.861633%, 0%)" stop-opacity="1"/>
<stop offset="0.226562" stop-color="rgb(100%, 37.64801%, 0%)" stop-opacity="1"/>
<stop offset="0.234375" stop-color="rgb(100%, 37.435913%, 0%)" stop-opacity="1"/>
<stop offset="0.242187" stop-color="rgb(100%, 37.22229%, 0%)" stop-opacity="1"/>
<stop offset="0.25" stop-color="rgb(100%, 37.010193%, 0%)" stop-opacity="1"/>
<stop offset="0.257812" stop-color="rgb(100%, 36.79657%, 0%)" stop-opacity="1"/>
<stop offset="0.265625" stop-color="rgb(100%, 36.584473%, 0%)" stop-opacity="1"/>
<stop offset="0.273437" stop-color="rgb(100%, 36.37085%, 0%)" stop-opacity="1"/>
<stop offset="0.28125" stop-color="rgb(100%, 36.158752%, 0%)" stop-opacity="1"/>
<stop offset="0.289062" stop-color="rgb(100%, 35.945129%, 0%)" stop-opacity="1"/>
<stop offset="0.296875" stop-color="rgb(100%, 35.731506%, 0%)" stop-opacity="1"/>
<stop offset="0.304687" stop-color="rgb(100%, 35.519409%, 0%)" stop-opacity="1"/>
<stop offset="0.3125" stop-color="rgb(100%, 35.305786%, 0%)" stop-opacity="1"/>
<stop offset="0.320313" stop-color="rgb(100%, 35.093689%, 0%)" stop-opacity="1"/>
<stop offset="0.328125" stop-color="rgb(100%, 34.880066%, 0%)" stop-opacity="1"/>
<stop offset="0.335937" stop-color="rgb(100%, 34.667969%, 0%)" stop-opacity="1"/>
<stop offset="0.34375" stop-color="rgb(100%, 34.454346%, 0%)" stop-opacity="1"/>
<stop offset="0.351562" stop-color="rgb(100%, 34.242249%, 0%)" stop-opacity="1"/>
<stop offset="0.359375" stop-color="rgb(100%, 34.028625%, 0%)" stop-opacity="1"/>
<stop offset="0.367188" stop-color="rgb(100%, 33.816528%, 0%)" stop-opacity="1"/>
<stop offset="0.375" stop-color="rgb(100%, 33.602905%, 0%)" stop-opacity="1"/>
<stop offset="0.382812" stop-color="rgb(100%, 33.390808%, 0%)" stop-opacity="1"/>
<stop offset="0.390625" stop-color="rgb(100%, 33.177185%, 0%)" stop-opacity="1"/>
<stop offset="0.398437" stop-color="rgb(100%, 32.963562%, 0%)" stop-opacity="1"/>
<stop offset="0.40625" stop-color="rgb(100%, 32.751465%, 0%)" stop-opacity="1"/>
<stop offset="0.414062" stop-color="rgb(100%, 32.537842%, 0%)" stop-opacity="1"/>
<stop offset="0.421875" stop-color="rgb(100%, 32.325745%, 0%)" stop-opacity="1"/>
<stop offset="0.429687" stop-color="rgb(100%, 32.112122%, 0%)" stop-opacity="1"/>
<stop offset="0.4375" stop-color="rgb(100%, 31.900024%, 0%)" stop-opacity="1"/>
<stop offset="0.445312" stop-color="rgb(100%, 31.686401%, 0%)" stop-opacity="1"/>
<stop offset="0.453125" stop-color="rgb(100%, 31.474304%, 0%)" stop-opacity="1"/>
<stop offset="0.460937" stop-color="rgb(100%, 31.260681%, 0%)" stop-opacity="1"/>
<stop offset="0.46875" stop-color="rgb(100%, 31.048584%, 0%)" stop-opacity="1"/>
<stop offset="0.476562" stop-color="rgb(100%, 30.834961%, 0%)" stop-opacity="1"/>
<stop offset="0.484375" stop-color="rgb(100%, 30.621338%, 0%)" stop-opacity="1"/>
<stop offset="0.492187" stop-color="rgb(100%, 30.409241%, 0%)" stop-opacity="1"/>
<stop offset="0.5" stop-color="rgb(100%, 30.195618%, 0%)" stop-opacity="1"/>
<stop offset="0.507812" stop-color="rgb(100%, 29.983521%, 0%)" stop-opacity="1"/>
<stop offset="0.515625" stop-color="rgb(100%, 29.769897%, 0%)" stop-opacity="1"/>
<stop offset="0.523437" stop-color="rgb(100%, 29.5578%, 0%)" stop-opacity="1"/>
<stop offset="0.53125" stop-color="rgb(100%, 29.344177%, 0%)" stop-opacity="1"/>
<stop offset="0.539062" stop-color="rgb(100%, 29.13208%, 0%)" stop-opacity="1"/>
<stop offset="0.546875" stop-color="rgb(100%, 28.918457%, 0%)" stop-opacity="1"/>
<stop offset="0.554687" stop-color="rgb(100%, 28.70636%, 0%)" stop-opacity="1"/>
<stop offset="0.5625" stop-color="rgb(100%, 28.492737%, 0%)" stop-opacity="1"/>
<stop offset="0.570312" stop-color="rgb(100%, 28.28064%, 0%)" stop-opacity="1"/>
<stop offset="0.578125" stop-color="rgb(100%, 28.067017%, 0%)" stop-opacity="1"/>
<stop offset="0.585937" stop-color="rgb(100%, 27.853394%, 0%)" stop-opacity="1"/>
<stop offset="0.59375" stop-color="rgb(100%, 27.641296%, 0%)" stop-opacity="1"/>
<stop offset="0.601562" stop-color="rgb(100%, 27.427673%, 0%)" stop-opacity="1"/>
<stop offset="0.609375" stop-color="rgb(100%, 27.215576%, 0%)" stop-opacity="1"/>
<stop offset="0.617187" stop-color="rgb(100%, 27.001953%, 0%)" stop-opacity="1"/>
<stop offset="0.625" stop-color="rgb(100%, 26.789856%, 0%)" stop-opacity="1"/>
<stop offset="0.632812" stop-color="rgb(100%, 26.576233%, 0%)" stop-opacity="1"/>
<stop offset="0.640625" stop-color="rgb(100%, 26.364136%, 0%)" stop-opacity="1"/>
<stop offset="0.648438" stop-color="rgb(100%, 26.150513%, 0%)" stop-opacity="1"/>
<stop offset="0.65625" stop-color="rgb(100%, 25.938416%, 0%)" stop-opacity="1"/>
<stop offset="0.664062" stop-color="rgb(100%, 25.724792%, 0%)" stop-opacity="1"/>
<stop offset="0.671875" stop-color="rgb(100%, 25.512695%, 0%)" stop-opacity="1"/>
<stop offset="0.679688" stop-color="rgb(100%, 25.299072%, 0%)" stop-opacity="1"/>
<stop offset="0.6875" stop-color="rgb(100%, 25.085449%, 0%)" stop-opacity="1"/>
<stop offset="0.695312" stop-color="rgb(100%, 24.873352%, 0%)" stop-opacity="1"/>
<stop offset="0.703125" stop-color="rgb(100%, 24.659729%, 0%)" stop-opacity="1"/>
<stop offset="0.710938" stop-color="rgb(100%, 24.447632%, 0%)" stop-opacity="1"/>
<stop offset="0.71875" stop-color="rgb(100%, 24.234009%, 0%)" stop-opacity="1"/>
<stop offset="0.726563" stop-color="rgb(100%, 24.021912%, 0%)" stop-opacity="1"/>
<stop offset="0.734375" stop-color="rgb(100%, 23.808289%, 0%)" stop-opacity="1"/>
<stop offset="0.742188" stop-color="rgb(100%, 23.596191%, 0%)" stop-opacity="1"/>
<stop offset="0.75" stop-color="rgb(100%, 23.382568%, 0%)" stop-opacity="1"/>
<stop offset="0.757813" stop-color="rgb(100%, 23.170471%, 0%)" stop-opacity="1"/>
<stop offset="0.765625" stop-color="rgb(100%, 22.956848%, 0%)" stop-opacity="1"/>
<stop offset="0.773438" stop-color="rgb(100%, 22.744751%, 0%)" stop-opacity="1"/>
<stop offset="0.78125" stop-color="rgb(100%, 22.531128%, 0%)" stop-opacity="1"/>
<stop offset="0.789063" stop-color="rgb(100%, 22.317505%, 0%)" stop-opacity="1"/>
<stop offset="0.796875" stop-color="rgb(100%, 22.105408%, 0%)" stop-opacity="1"/>
<stop offset="0.804688" stop-color="rgb(100%, 21.891785%, 0%)" stop-opacity="1"/>
<stop offset="0.8125" stop-color="rgb(100%, 21.679688%, 0%)" stop-opacity="1"/>
<stop offset="0.820313" stop-color="rgb(100%, 21.466064%, 0%)" stop-opacity="1"/>
<stop offset="0.828125" stop-color="rgb(100%, 21.253967%, 0%)" stop-opacity="1"/>
<stop offset="0.835938" stop-color="rgb(100%, 21.040344%, 0%)" stop-opacity="1"/>
<stop offset="0.84375" stop-color="rgb(100%, 20.828247%, 0%)" stop-opacity="1"/>
<stop offset="0.851563" stop-color="rgb(100%, 20.614624%, 0%)" stop-opacity="1"/>
<stop offset="0.859375" stop-color="rgb(100%, 20.402527%, 0%)" stop-opacity="1"/>
<stop offset="0.867188" stop-color="rgb(100%, 20.188904%, 0%)" stop-opacity="1"/>
<stop offset="0.875" stop-color="rgb(100%, 19.976807%, 0%)" stop-opacity="1"/>
<stop offset="0.882813" stop-color="rgb(100%, 19.763184%, 0%)" stop-opacity="1"/>
<stop offset="0.890625" stop-color="rgb(100%, 19.549561%, 0%)" stop-opacity="1"/>
<stop offset="0.898438" stop-color="rgb(100%, 19.337463%, 0%)" stop-opacity="1"/>
<stop offset="0.90625" stop-color="rgb(100%, 19.12384%, 0%)" stop-opacity="1"/>
<stop offset="0.914063" stop-color="rgb(100%, 18.911743%, 0%)" stop-opacity="1"/>
<stop offset="0.921875" stop-color="rgb(100%, 18.69812%, 0%)" stop-opacity="1"/>
<stop offset="0.929688" stop-color="rgb(100%, 18.486023%, 0%)" stop-opacity="1"/>
<stop offset="0.9375" stop-color="rgb(100%, 18.2724%, 0%)" stop-opacity="1"/>
<stop offset="0.945312" stop-color="rgb(100%, 18.060303%, 0%)" stop-opacity="1"/>
<stop offset="0.953125" stop-color="rgb(100%, 17.84668%, 0%)" stop-opacity="1"/>
<stop offset="0.960938" stop-color="rgb(100%, 17.634583%, 0%)" stop-opacity="1"/>
<stop offset="0.96875" stop-color="rgb(100%, 17.420959%, 0%)" stop-opacity="1"/>
<stop offset="0.976562" stop-color="rgb(100%, 17.208862%, 0%)" stop-opacity="1"/>
<stop offset="0.984375" stop-color="rgb(100%, 16.995239%, 0%)" stop-opacity="1"/>
<stop offset="0.992188" stop-color="rgb(100%, 16.781616%, 0%)" stop-opacity="1"/>
<stop offset="0.997264" stop-color="rgb(100%, 16.569519%, 0%)" stop-opacity="1"/>
<stop offset="1" stop-color="rgb(100%, 16.462708%, 0%)" stop-opacity="1"/>
</linearGradient>
<clipPath id="clip-6">
<path clip-rule="nonzero" d="M 1364 519 L 1636 519 L 1636 1164 L 1364 1164 Z M 1364 519 "/>
</clipPath>
<clipPath id="clip-7">
<path clip-rule="nonzero" d="M 1407.101562 519.371094 L 1399.941406 545.101562 C 1384.648438 597.078125 1373.75 646.691406 1367.25 693.929688 C 1365.410156 709.5 1364.550781 724.550781 1364.660156 739.070312 L 1365.738281 760.359375 C 1367.019531 774.25 1369.628906 787.421875 1373.589844 799.871094 C 1382.089844 824.480469 1394.949219 846.648438 1412.191406 866.359375 C 1415.28125 872.660156 1448.039062 904.761719 1510.5 962.671875 C 1515.839844 966.890625 1527.511719 981.058594 1545.519531 1005.191406 C 1567.519531 1034 1590.449219 1086.851562 1614.300781 1163.730469 C 1623.921875 1115.640625 1630.570312 1069.109375 1634.269531 1024.128906 C 1635.210938 1009.289062 1635.378906 994.859375 1634.78125 980.828125 L 1633.140625 960.171875 C 1631.609375 946.621094 1628.980469 933.660156 1625.25 921.269531 C 1617.449219 896.660156 1605.179688 874.429688 1588.449219 854.570312 C 1580.269531 844.558594 1571.519531 834.871094 1562.210938 825.511719 C 1514.03125 779.910156 1486.378906 752.21875 1479.25 742.449219 L 1467.789062 727.78125 C 1460.621094 717.789062 1454.328125 707.441406 1448.910156 696.730469 C 1438.238281 675.21875 1430.121094 652.648438 1424.539062 629 C 1416.578125 593.359375 1410.769531 556.820312 1407.101562 519.371094 "/>
</clipPath>
<clipPath id="clip-8">
<path clip-rule="nonzero" d="M 1407.101562 519.371094 L 1399.941406 545.101562 C 1384.648438 597.078125 1373.75 646.691406 1367.25 693.929688 C 1365.410156 709.5 1364.550781 724.550781 1364.660156 739.070312 L 1365.738281 760.359375 C 1367.019531 774.25 1369.628906 787.421875 1373.589844 799.871094 C 1382.089844 824.480469 1394.949219 846.648438 1412.191406 866.359375 C 1415.28125 872.660156 1448.039062 904.761719 1510.5 962.671875 C 1515.839844 966.890625 1527.511719 981.058594 1545.519531 1005.191406 C 1567.519531 1034 1590.449219 1086.851562 1614.300781 1163.730469 C 1623.921875 1115.640625 1630.570312 1069.109375 1634.269531 1024.128906 C 1635.210938 1009.289062 1635.378906 994.859375 1634.78125 980.828125 L 1633.140625 960.171875 C 1631.609375 946.621094 1628.980469 933.660156 1625.25 921.269531 C 1617.449219 896.660156 1605.179688 874.429688 1588.449219 854.570312 C 1580.269531 844.558594 1571.519531 834.871094 1562.210938 825.511719 C 1514.03125 779.910156 1486.378906 752.21875 1479.25 742.449219 L 1467.789062 727.78125 C 1460.621094 717.789062 1454.328125 707.441406 1448.910156 696.730469 C 1438.238281 675.21875 1430.121094 652.648438 1424.539062 629 C 1416.578125 593.359375 1410.769531 556.820312 1407.101562 519.371094 "/>
</clipPath>
<linearGradient id="linear-pattern-2" gradientUnits="userSpaceOnUse" x1="582.715137" y1="665.318367" x2="578.476787" y2="-195.585213" gradientTransform="matrix(0.75, 0, 0, 0.75, 1095, 665.25)">
<stop offset="0" stop-color="rgb(100%, 18.234253%, 0%)" stop-opacity="1"/>
<stop offset="0.00206497" stop-color="rgb(100%, 18.075562%, 0%)" stop-opacity="1"/>
<stop offset="0.015625" stop-color="rgb(100%, 17.918396%, 0%)" stop-opacity="1"/>
<stop offset="0.03125" stop-color="rgb(100%, 17.759705%, 0%)" stop-opacity="1"/>
<stop offset="0.046875" stop-color="rgb(100%, 17.443848%, 0%)" stop-opacity="1"/>
<stop offset="0.0625" stop-color="rgb(100%, 17.126465%, 0%)" stop-opacity="1"/>
<stop offset="0.078125" stop-color="rgb(100%, 16.810608%, 0%)" stop-opacity="1"/>
<stop offset="0.09375" stop-color="rgb(100%, 16.494751%, 0%)" stop-opacity="1"/>
<stop offset="0.109375" stop-color="rgb(100%, 16.177368%, 0%)" stop-opacity="1"/>
<stop offset="0.125" stop-color="rgb(100%, 15.861511%, 0%)" stop-opacity="1"/>
<stop offset="0.140625" stop-color="rgb(100%, 15.545654%, 0%)" stop-opacity="1"/>
<stop offset="0.15625" stop-color="rgb(100%, 15.228271%, 0%)" stop-opacity="1"/>
<stop offset="0.171875" stop-color="rgb(100%, 14.912415%, 0%)" stop-opacity="1"/>
<stop offset="0.1875" stop-color="rgb(100%, 14.596558%, 0%)" stop-opacity="1"/>
<stop offset="0.203125" stop-color="rgb(100%, 14.279175%, 0%)" stop-opacity="1"/>
<stop offset="0.21875" stop-color="rgb(100%, 13.963318%, 0%)" stop-opacity="1"/>
<stop offset="0.25" stop-color="rgb(100%, 13.764954%, 0%)" stop-opacity="1"/>
<stop offset="0.5" stop-color="rgb(100%, 13.725281%, 0%)" stop-opacity="1"/>
<stop offset="0.997935" stop-color="rgb(100%, 13.725281%, 0%)" stop-opacity="1"/>
<stop offset="1" stop-color="rgb(100%, 13.725281%, 0%)" stop-opacity="1"/>
</linearGradient>
<clipPath id="clip-9">
<path clip-rule="nonzero" d="M 1068 909 L 1661 909 L 1661 2090 L 1068 2090 Z M 1068 909 "/>
</clipPath>
<clipPath id="clip-10">
<path clip-rule="nonzero" d="M 1601.53125 1440.859375 L 1603 1425.519531 C 1608.960938 1369.5 1609.578125 1322.261719 1604.871094 1283.820312 C 1599.320312 1239.160156 1586.320312 1193.53125 1565.878906 1146.910156 C 1548.558594 1104.449219 1522.328125 1059.761719 1487.210938 1012.828125 C 1465.070312 984.601562 1435.789062 953.289062 1399.351562 918.898438 C 1389.171875 911.25 1382.738281 908.171875 1380.058594 909.660156 C 1374.871094 911.898438 1373.109375 920.5 1374.761719 935.460938 L 1392.390625 1040.410156 C 1397.03125 1077.878906 1399.019531 1100.578125 1398.371094 1108.488281 C 1399.378906 1139.679688 1395.148438 1168.378906 1385.679688 1194.589844 C 1375.128906 1219.808594 1359.429688 1241.648438 1338.558594 1260.109375 L 1305.859375 1286.789062 C 1245.75 1327.21875 1210.75 1351.910156 1200.851562 1360.851562 C 1179.730469 1378.339844 1161.480469 1397.609375 1146.101562 1418.671875 C 1133.21875 1433.371094 1117.769531 1462.71875 1099.738281 1506.71875 C 1085.460938 1545.730469 1075.808594 1589.210938 1070.78125 1637.171875 C 1067.570312 1669.03125 1068.179688 1701.699219 1072.609375 1735.199219 C 1080.539062 1776.949219 1086.878906 1801.960938 1091.640625 1810.21875 C 1109.921875 1851.429688 1122.800781 1875.871094 1130.28125 1883.539062 C 1152.648438 1915.609375 1179.589844 1945.339844 1211.121094 1972.699219 C 1334.160156 2079.945312 1459.449219 2113.132812 1586.980469 2072.261719 C 1646.539062 2048.746094 1669.839844 2027.898438 1656.890625 2009.722656 C 1652.441406 2004.410156 1644.28125 2000.253906 1632.421875 1997.25 C 1562.210938 1985.429688 1518.871094 1974.488281 1502.390625 1964.441406 C 1466.71875 1945.890625 1442.128906 1929.039062 1428.609375 1913.871094 C 1400.289062 1887.121094 1378.25 1855.070312 1362.488281 1817.730469 C 1357.480469 1805.410156 1353.539062 1792.691406 1350.660156 1779.570312 C 1347.871094 1773.261719 1346.109375 1753.070312 1345.398438 1718.988281 C 1349.320312 1646.300781 1374.070312 1585.761719 1419.640625 1537.359375 C 1459.738281 1498.230469 1520.378906 1466.058594 1601.53125 1440.859375 "/>
</clipPath>
<clipPath id="clip-11">
<path clip-rule="nonzero" d="M 1601.53125 1440.859375 L 1603 1425.519531 C 1608.960938 1369.5 1609.578125 1322.261719 1604.871094 1283.820312 C 1599.320312 1239.160156 1586.320312 1193.53125 1565.878906 1146.910156 C 1548.558594 1104.449219 1522.328125 1059.761719 1487.210938 1012.828125 C 1465.070312 984.601562 1435.789062 953.289062 1399.351562 918.898438 C 1389.171875 911.25 1382.738281 908.171875 1380.058594 909.660156 C 1374.871094 911.898438 1373.109375 920.5 1374.761719 935.460938 L 1392.390625 1040.410156 C 1397.03125 1077.878906 1399.019531 1100.578125 1398.371094 1108.488281 C 1399.378906 1139.679688 1395.148438 1168.378906 1385.679688 1194.589844 C 1375.128906 1219.808594 1359.429688 1241.648438 1338.558594 1260.109375 L 1305.859375 1286.789062 C 1245.75 1327.21875 1210.75 1351.910156 1200.851562 1360.851562 C 1179.730469 1378.339844 1161.480469 1397.609375 1146.101562 1418.671875 C 1133.21875 1433.371094 1117.769531 1462.71875 1099.738281 1506.71875 C 1085.460938 1545.730469 1075.808594 1589.210938 1070.78125 1637.171875 C 1067.570312 1669.03125 1068.179688 1701.699219 1072.609375 1735.199219 C 1080.539062 1776.949219 1086.878906 1801.960938 1091.640625 1810.21875 C 1109.921875 1851.429688 1122.800781 1875.871094 1130.28125 1883.539062 C 1152.648438 1915.609375 1179.589844 1945.339844 1211.121094 1972.699219 C 1334.160156 2079.945312 1459.449219 2113.132812 1586.980469 2072.261719 C 1646.539062 2048.746094 1669.839844 2027.898438 1656.890625 2009.722656 C 1652.441406 2004.410156 1644.28125 2000.253906 1632.421875 1997.25 C 1562.210938 1985.429688 1518.871094 1974.488281 1502.390625 1964.441406 C 1466.71875 1945.890625 1442.128906 1929.039062 1428.609375 1913.871094 C 1400.289062 1887.121094 1378.25 1855.070312 1362.488281 1817.730469 C 1357.480469 1805.410156 1353.539062 1792.691406 1350.660156 1779.570312 C 1347.871094 1773.261719 1346.109375 1753.070312 1345.398438 1718.988281 C 1349.320312 1646.300781 1374.070312 1585.761719 1419.640625 1537.359375 C 1459.738281 1498.230469 1520.378906 1466.058594 1601.53125 1440.859375 "/>
</clipPath>
<linearGradient id="linear-pattern-3" gradientUnits="userSpaceOnUse" x1="588.94816" y1="1931.38455" x2="581.019285" y2="320.852838" gradientTransform="matrix(0.75, 0, 0, 0.75, 1095, 665.25)">
<stop offset="0" stop-color="rgb(100%, 48.007202%, 0%)" stop-opacity="1"/>
<stop offset="0.00245467" stop-color="rgb(100%, 47.859192%, 0%)" stop-opacity="1"/>
<stop offset="0.0078125" stop-color="rgb(100%, 47.711182%, 0%)" stop-opacity="1"/>
<stop offset="0.015625" stop-color="rgb(100%, 47.563171%, 0%)" stop-opacity="1"/>
<stop offset="0.0234375" stop-color="rgb(100%, 47.267151%, 0%)" stop-opacity="1"/>
<stop offset="0.03125" stop-color="rgb(100%, 46.97113%, 0%)" stop-opacity="1"/>
<stop offset="0.0390625" stop-color="rgb(100%, 46.676636%, 0%)" stop-opacity="1"/>
<stop offset="0.046875" stop-color="rgb(100%, 46.380615%, 0%)" stop-opacity="1"/>
<stop offset="0.0546875" stop-color="rgb(100%, 46.084595%, 0%)" stop-opacity="1"/>
<stop offset="0.0625" stop-color="rgb(100%, 45.788574%, 0%)" stop-opacity="1"/>
<stop offset="0.0703125" stop-color="rgb(100%, 45.492554%, 0%)" stop-opacity="1"/>
<stop offset="0.078125" stop-color="rgb(100%, 45.196533%, 0%)" stop-opacity="1"/>
<stop offset="0.0859375" stop-color="rgb(100%, 44.900513%, 0%)" stop-opacity="1"/>
<stop offset="0.09375" stop-color="rgb(100%, 44.604492%, 0%)" stop-opacity="1"/>
<stop offset="0.101562" stop-color="rgb(100%, 44.308472%, 0%)" stop-opacity="1"/>
<stop offset="0.109375" stop-color="rgb(100%, 44.012451%, 0%)" stop-opacity="1"/>
<stop offset="0.117187" stop-color="rgb(100%, 43.716431%, 0%)" stop-opacity="1"/>
<stop offset="0.125" stop-color="rgb(100%, 43.42041%, 0%)" stop-opacity="1"/>
<stop offset="0.132812" stop-color="rgb(100%, 43.125916%, 0%)" stop-opacity="1"/>
<stop offset="0.140625" stop-color="rgb(100%, 42.829895%, 0%)" stop-opacity="1"/>
<stop offset="0.148437" stop-color="rgb(100%, 42.533875%, 0%)" stop-opacity="1"/>
<stop offset="0.15625" stop-color="rgb(100%, 42.237854%, 0%)" stop-opacity="1"/>
<stop offset="0.164062" stop-color="rgb(100%, 41.941833%, 0%)" stop-opacity="1"/>
<stop offset="0.171875" stop-color="rgb(100%, 41.645813%, 0%)" stop-opacity="1"/>
<stop offset="0.179687" stop-color="rgb(100%, 41.349792%, 0%)" stop-opacity="1"/>
<stop offset="0.1875" stop-color="rgb(100%, 41.053772%, 0%)" stop-opacity="1"/>
<stop offset="0.195312" stop-color="rgb(100%, 40.757751%, 0%)" stop-opacity="1"/>
<stop offset="0.203125" stop-color="rgb(100%, 40.461731%, 0%)" stop-opacity="1"/>
<stop offset="0.210937" stop-color="rgb(100%, 40.16571%, 0%)" stop-opacity="1"/>
<stop offset="0.21875" stop-color="rgb(100%, 39.871216%, 0%)" stop-opacity="1"/>
<stop offset="0.226562" stop-color="rgb(100%, 39.575195%, 0%)" stop-opacity="1"/>
<stop offset="0.234375" stop-color="rgb(100%, 39.279175%, 0%)" stop-opacity="1"/>
<stop offset="0.242187" stop-color="rgb(100%, 38.983154%, 0%)" stop-opacity="1"/>
<stop offset="0.25" stop-color="rgb(100%, 38.687134%, 0%)" stop-opacity="1"/>
<stop offset="0.257812" stop-color="rgb(100%, 38.391113%, 0%)" stop-opacity="1"/>
<stop offset="0.265625" stop-color="rgb(100%, 38.095093%, 0%)" stop-opacity="1"/>
<stop offset="0.273437" stop-color="rgb(100%, 37.799072%, 0%)" stop-opacity="1"/>
<stop offset="0.28125" stop-color="rgb(100%, 37.503052%, 0%)" stop-opacity="1"/>
<stop offset="0.289062" stop-color="rgb(100%, 37.207031%, 0%)" stop-opacity="1"/>
<stop offset="0.296875" stop-color="rgb(100%, 36.911011%, 0%)" stop-opacity="1"/>
<stop offset="0.304687" stop-color="rgb(100%, 36.616516%, 0%)" stop-opacity="1"/>
<stop offset="0.3125" stop-color="rgb(100%, 36.320496%, 0%)" stop-opacity="1"/>
<stop offset="0.320312" stop-color="rgb(100%, 36.024475%, 0%)" stop-opacity="1"/>
<stop offset="0.328125" stop-color="rgb(100%, 35.728455%, 0%)" stop-opacity="1"/>
<stop offset="0.335937" stop-color="rgb(100%, 35.432434%, 0%)" stop-opacity="1"/>
<stop offset="0.34375" stop-color="rgb(100%, 35.136414%, 0%)" stop-opacity="1"/>
<stop offset="0.351562" stop-color="rgb(100%, 34.840393%, 0%)" stop-opacity="1"/>
<stop offset="0.359375" stop-color="rgb(100%, 34.544373%, 0%)" stop-opacity="1"/>
<stop offset="0.367187" stop-color="rgb(100%, 34.248352%, 0%)" stop-opacity="1"/>
<stop offset="0.375" stop-color="rgb(100%, 33.952332%, 0%)" stop-opacity="1"/>
<stop offset="0.382812" stop-color="rgb(100%, 33.656311%, 0%)" stop-opacity="1"/>
<stop offset="0.390625" stop-color="rgb(100%, 33.360291%, 0%)" stop-opacity="1"/>
<stop offset="0.398437" stop-color="rgb(100%, 33.065796%, 0%)" stop-opacity="1"/>
<stop offset="0.40625" stop-color="rgb(100%, 32.769775%, 0%)" stop-opacity="1"/>
<stop offset="0.414062" stop-color="rgb(100%, 32.473755%, 0%)" stop-opacity="1"/>
<stop offset="0.421875" stop-color="rgb(100%, 32.177734%, 0%)" stop-opacity="1"/>
<stop offset="0.429687" stop-color="rgb(100%, 31.881714%, 0%)" stop-opacity="1"/>
<stop offset="0.4375" stop-color="rgb(100%, 31.585693%, 0%)" stop-opacity="1"/>
<stop offset="0.445312" stop-color="rgb(100%, 31.289673%, 0%)" stop-opacity="1"/>
<stop offset="0.453125" stop-color="rgb(100%, 30.993652%, 0%)" stop-opacity="1"/>
<stop offset="0.460937" stop-color="rgb(100%, 30.697632%, 0%)" stop-opacity="1"/>
<stop offset="0.46875" stop-color="rgb(100%, 30.401611%, 0%)" stop-opacity="1"/>
<stop offset="0.476562" stop-color="rgb(100%, 30.105591%, 0%)" stop-opacity="1"/>
<stop offset="0.484375" stop-color="rgb(100%, 29.811096%, 0%)" stop-opacity="1"/>
<stop offset="0.492187" stop-color="rgb(100%, 29.515076%, 0%)" stop-opacity="1"/>
<stop offset="0.5" stop-color="rgb(100%, 29.219055%, 0%)" stop-opacity="1"/>
<stop offset="0.507812" stop-color="rgb(100%, 28.923035%, 0%)" stop-opacity="1"/>
<stop offset="0.515625" stop-color="rgb(100%, 28.627014%, 0%)" stop-opacity="1"/>
<stop offset="0.523438" stop-color="rgb(100%, 28.330994%, 0%)" stop-opacity="1"/>
<stop offset="0.53125" stop-color="rgb(100%, 28.034973%, 0%)" stop-opacity="1"/>
<stop offset="0.539062" stop-color="rgb(100%, 27.738953%, 0%)" stop-opacity="1"/>
<stop offset="0.546875" stop-color="rgb(100%, 27.442932%, 0%)" stop-opacity="1"/>
<stop offset="0.554688" stop-color="rgb(100%, 27.146912%, 0%)" stop-opacity="1"/>
<stop offset="0.5625" stop-color="rgb(100%, 26.850891%, 0%)" stop-opacity="1"/>
<stop offset="0.570312" stop-color="rgb(100%, 26.556396%, 0%)" stop-opacity="1"/>
<stop offset="0.578125" stop-color="rgb(100%, 26.260376%, 0%)" stop-opacity="1"/>
<stop offset="0.585938" stop-color="rgb(100%, 25.964355%, 0%)" stop-opacity="1"/>
<stop offset="0.59375" stop-color="rgb(100%, 25.668335%, 0%)" stop-opacity="1"/>
<stop offset="0.601562" stop-color="rgb(100%, 25.372314%, 0%)" stop-opacity="1"/>
<stop offset="0.609375" stop-color="rgb(100%, 25.076294%, 0%)" stop-opacity="1"/>
<stop offset="0.617187" stop-color="rgb(100%, 24.780273%, 0%)" stop-opacity="1"/>
<stop offset="0.625" stop-color="rgb(100%, 24.484253%, 0%)" stop-opacity="1"/>
<stop offset="0.632812" stop-color="rgb(100%, 24.188232%, 0%)" stop-opacity="1"/>
<stop offset="0.640625" stop-color="rgb(100%, 23.892212%, 0%)" stop-opacity="1"/>
<stop offset="0.648437" stop-color="rgb(100%, 23.596191%, 0%)" stop-opacity="1"/>
<stop offset="0.65625" stop-color="rgb(100%, 23.300171%, 0%)" stop-opacity="1"/>
<stop offset="0.664062" stop-color="rgb(100%, 23.005676%, 0%)" stop-opacity="1"/>
<stop offset="0.671875" stop-color="rgb(100%, 22.709656%, 0%)" stop-opacity="1"/>
<stop offset="0.679687" stop-color="rgb(100%, 22.413635%, 0%)" stop-opacity="1"/>
<stop offset="0.6875" stop-color="rgb(100%, 22.117615%, 0%)" stop-opacity="1"/>
<stop offset="0.695312" stop-color="rgb(100%, 21.821594%, 0%)" stop-opacity="1"/>
<stop offset="0.703125" stop-color="rgb(100%, 21.525574%, 0%)" stop-opacity="1"/>
<stop offset="0.710937" stop-color="rgb(100%, 21.229553%, 0%)" stop-opacity="1"/>
<stop offset="0.71875" stop-color="rgb(100%, 20.933533%, 0%)" stop-opacity="1"/>
<stop offset="0.726562" stop-color="rgb(100%, 20.637512%, 0%)" stop-opacity="1"/>
<stop offset="0.734375" stop-color="rgb(100%, 20.341492%, 0%)" stop-opacity="1"/>
<stop offset="0.742187" stop-color="rgb(100%, 20.045471%, 0%)" stop-opacity="1"/>
<stop offset="0.75" stop-color="rgb(100%, 19.750977%, 0%)" stop-opacity="1"/>
<stop offset="0.757812" stop-color="rgb(100%, 19.454956%, 0%)" stop-opacity="1"/>
<stop offset="0.765625" stop-color="rgb(100%, 19.158936%, 0%)" stop-opacity="1"/>
<stop offset="0.773437" stop-color="rgb(100%, 18.862915%, 0%)" stop-opacity="1"/>
<stop offset="0.78125" stop-color="rgb(100%, 18.566895%, 0%)" stop-opacity="1"/>
<stop offset="0.789062" stop-color="rgb(100%, 18.270874%, 0%)" stop-opacity="1"/>
<stop offset="0.796875" stop-color="rgb(100%, 17.974854%, 0%)" stop-opacity="1"/>
<stop offset="0.804687" stop-color="rgb(100%, 17.678833%, 0%)" stop-opacity="1"/>
<stop offset="0.8125" stop-color="rgb(100%, 17.382812%, 0%)" stop-opacity="1"/>
<stop offset="0.820312" stop-color="rgb(100%, 17.086792%, 0%)" stop-opacity="1"/>
<stop offset="0.828125" stop-color="rgb(100%, 16.790771%, 0%)" stop-opacity="1"/>
<stop offset="0.835937" stop-color="rgb(100%, 16.496277%, 0%)" stop-opacity="1"/>
<stop offset="0.84375" stop-color="rgb(100%, 16.200256%, 0%)" stop-opacity="1"/>
<stop offset="0.851562" stop-color="rgb(100%, 15.904236%, 0%)" stop-opacity="1"/>
<stop offset="0.859375" stop-color="rgb(100%, 15.608215%, 0%)" stop-opacity="1"/>
<stop offset="0.867187" stop-color="rgb(100%, 15.312195%, 0%)" stop-opacity="1"/>
<stop offset="0.875" stop-color="rgb(100%, 15.016174%, 0%)" stop-opacity="1"/>
<stop offset="0.882812" stop-color="rgb(100%, 14.720154%, 0%)" stop-opacity="1"/>
<stop offset="0.890625" stop-color="rgb(100%, 14.424133%, 0%)" stop-opacity="1"/>
<stop offset="0.898438" stop-color="rgb(100%, 14.128113%, 0%)" stop-opacity="1"/>
<stop offset="0.90625" stop-color="rgb(100%, 13.851929%, 0%)" stop-opacity="1"/>
<stop offset="0.9375" stop-color="rgb(100%, 13.725281%, 0%)" stop-opacity="1"/>
<stop offset="0.997545" stop-color="rgb(100%, 13.725281%, 0%)" stop-opacity="1"/>
<stop offset="1" stop-color="rgb(100%, 13.725281%, 0%)" stop-opacity="1"/>
</linearGradient>
</defs>

<g clip-path="url(#clip-0)">
<g clip-path="url(#clip-1)">
<g clip-path="url(#clip-2)">
<path fill-rule="nonzero" fill="url(#linear-pattern-0)" d="M 947.558594 1476.941406 L 947.558594 2303.261719 L 2026.289062 2303.261719 L 2026.289062 1476.941406 Z M 947.558594 1476.941406 "/>
</g>
</g>
</g>
<g clip-path="url(#clip-3)">
<g clip-path="url(#clip-4)">
<g clip-path="url(#clip-5)">
<path fill-rule="nonzero" fill="url(#linear-pattern-1)" d="M 1417.320312 1108.308594 L 1417.320312 1975.160156 L 1900.308594 1975.160156 L 1900.308594 1108.308594 Z M 1417.320312 1108.308594 "/>
</g>
</g>
</g>
<g clip-path="url(#clip-6)">
<g clip-path="url(#clip-7)">
<g clip-path="url(#clip-8)">
<path fill-rule="nonzero" fill="url(#linear-pattern-2)" d="M 1364.550781 519.371094 L 1364.550781 1163.730469 L 1635.378906 1163.730469 L 1635.378906 519.371094 Z M 1364.550781 519.371094 "/>
</g>
</g>
</g>
<g clip-path="url(#clip-9)">
<g clip-path="url(#clip-10)">
<g clip-path="url(#clip-11)">
<path fill-rule="nonzero" fill="url(#linear-pattern-3)" d="M 1067.570312 908.171875 L 1067.570312 2113.132812 L 1669.839844 2113.132812 L 1669.839844 908.171875 Z M 1067.570312 908.171875 "/>
</g>
</g>
</g>
</svg>
